<?xml version="1.0" encoding="utf-8"?>
<!-- Generator: Adobe Illustrator 22.0.0, SVG Export Plug-In . SVG Version: 6.00 Build 0)  -->
<svg version="1.1" xmlns="http://www.w3.org/2000/svg" xmlns:xlink="http://www.w3.org/1999/xlink" x="0px" y="0px"
	 viewBox="0 0 256 256" style="enable-background:new 0 0 256 256;" xml:space="preserve">
<style type="text/css">
	.st0{display:none;}
	.st1{display:inline;}
	.st2{fill:none;stroke:#6B1D1D;stroke-width:0.5;stroke-miterlimit:10;}
	.st3{fill:#3A312A;}
	.st4{fill:#87796F;}
	.st5{fill:#D5DE58;}
	.st6{fill:#695B51;}
	.st7{fill:#FCE8CB;}
	.st8{fill:#F16C7A;}
	.st9{fill:#8AC6DD;}
	.st10{fill:#DECAAD;}
	.st11{fill:#D6DF58;}
	.st12{fill-rule:evenodd;clip-rule:evenodd;fill:#FCE8CB;}
	.st13{fill:#F5978A;}
	.st14{fill:#D7E057;}
	.st15{fill-rule:evenodd;clip-rule:evenodd;fill:#87796F;}
	.st16{fill:#6CA8BF;}
	.st17{fill:#B9C239;}
	.st18{fill:#D34E5C;}
	.st19{fill:#FAE6CA;}
	.st20{fill:#F8E4C8;}
	.st21{fill:#8AC5DC;}
	.st22{fill:#EF6D7A;}
	.st23{fill:#EB6E7A;}
	.st24{fill:#89C4DB;}
	.st25{fill-rule:evenodd;clip-rule:evenodd;fill:#F16C7A;}
	.st26{fill:#F7E3C7;}
	.st27{fill:#F6E2C6;}
	.st28{fill:#ED6E7A;}
	.st29{fill:#8AC3DA;}
	.st30{fill:#D5DC57;}
	.st31{fill-rule:evenodd;clip-rule:evenodd;fill:#D7E057;}
	.st32{fill-rule:evenodd;clip-rule:evenodd;fill:#F8E4C8;}
	.st33{fill:#D4DB56;}
	.st34{fill:#F59689;}
	.st35{fill:#DDC9AC;}
	.st36{fill:#D24E5C;}
	.st37{fill:#6A5C52;}
	.st38{fill:#6CA6BE;}
	.st39{fill:#B8C136;}
	.st40{fill-rule:evenodd;clip-rule:evenodd;fill:#FAE6CA;}
</style>
<g id="Layer_2" class="st0">
	<g class="st1">
		<g>
			<line class="st2" x1="0" y1="4.829" x2="256" y2="4.829"/>
			<line class="st2" x1="0" y1="16.56" x2="256" y2="16.56"/>
			<line class="st2" x1="0" y1="28.29" x2="256" y2="28.29"/>
			<line class="st2" x1="0" y1="40.021" x2="256" y2="40.021"/>
			<line class="st2" x1="0" y1="51.751" x2="256" y2="51.751"/>
			<line class="st2" x1="0" y1="63.482" x2="256" y2="63.482"/>
			<line class="st2" x1="0" y1="75.213" x2="256" y2="75.213"/>
			<line class="st2" x1="0" y1="86.943" x2="256" y2="86.943"/>
			<line class="st2" x1="0" y1="98.674" x2="256" y2="98.674"/>
			<line class="st2" x1="0" y1="110.404" x2="256" y2="110.404"/>
			<line class="st2" x1="0" y1="122.135" x2="256" y2="122.135"/>
			<line class="st2" x1="0" y1="133.865" x2="256" y2="133.865"/>
			<line class="st2" x1="0" y1="145.596" x2="256" y2="145.596"/>
			<line class="st2" x1="0" y1="157.326" x2="256" y2="157.326"/>
			<line class="st2" x1="0" y1="169.057" x2="256" y2="169.057"/>
			<line class="st2" x1="0" y1="180.788" x2="256" y2="180.788"/>
			<line class="st2" x1="0" y1="192.518" x2="256" y2="192.518"/>
			<line class="st2" x1="0" y1="204.249" x2="256" y2="204.249"/>
			<line class="st2" x1="0" y1="215.979" x2="256" y2="215.979"/>
			<line class="st2" x1="0" y1="227.71" x2="256" y2="227.71"/>
			<line class="st2" x1="0" y1="239.44" x2="256" y2="239.44"/>
			<line class="st2" x1="0" y1="251.171" x2="256" y2="251.171"/>
		</g>
		<g>
			<line class="st2" x1="251.171" y1="0" x2="251.171" y2="256"/>
			<line class="st2" x1="239.44" y1="0" x2="239.44" y2="256"/>
			<line class="st2" x1="227.71" y1="0" x2="227.71" y2="256"/>
			<line class="st2" x1="215.979" y1="0" x2="215.979" y2="256"/>
			<line class="st2" x1="204.249" y1="0" x2="204.249" y2="256"/>
			<line class="st2" x1="192.518" y1="0" x2="192.518" y2="256"/>
			<line class="st2" x1="180.787" y1="0" x2="180.787" y2="256"/>
			<line class="st2" x1="169.057" y1="0" x2="169.057" y2="256"/>
			<line class="st2" x1="157.326" y1="0" x2="157.326" y2="256"/>
			<line class="st2" x1="145.596" y1="0" x2="145.596" y2="256"/>
			<line class="st2" x1="133.865" y1="0" x2="133.865" y2="256"/>
			<line class="st2" x1="122.135" y1="0" x2="122.135" y2="256"/>
			<line class="st2" x1="110.404" y1="0" x2="110.404" y2="256"/>
			<line class="st2" x1="98.674" y1="0" x2="98.674" y2="256"/>
			<line class="st2" x1="86.943" y1="0" x2="86.943" y2="256"/>
			<line class="st2" x1="75.212" y1="0" x2="75.212" y2="256"/>
			<line class="st2" x1="63.482" y1="0" x2="63.482" y2="256"/>
			<line class="st2" x1="51.751" y1="0" x2="51.751" y2="256"/>
			<line class="st2" x1="40.021" y1="0" x2="40.021" y2="256"/>
			<line class="st2" x1="28.29" y1="0" x2="28.29" y2="256"/>
			<line class="st2" x1="16.56" y1="0" x2="16.56" y2="256"/>
			<line class="st2" x1="4.829" y1="0" x2="4.829" y2="256"/>
		</g>
	</g>
</g>
<g id="Layer_1">
	<g>
		<path class="st4" d="M219.909,137.907c-3.493-6.415-10.213-10.407-17.517-10.407h-78.855H53.609
			c-7.304,0-14.024,3.993-17.517,10.407l-16.662,30.599c-1.594,2.927-2.429,6.206-2.429,9.539v0c0,13.219,12.625,22.781,25.35,19.2
			l75.236-21.174c3.379-0.951,6.949-0.993,10.35-0.123l86.172,22.059c12.616,3.23,24.893-6.3,24.893-19.323v-0.639
			c0-3.332-0.835-6.612-2.429-9.539L219.909,137.907z"/>
		<path class="st3" d="M219.103,200.142c-1.785,0-3.587-0.225-5.368-0.681l-86.172-22.059c-3.14-0.805-6.45-0.767-9.572,0.114
			L42.756,198.69c-6.522,1.834-13.359,0.54-18.758-3.549c-5.4-4.09-8.498-10.321-8.498-17.096c0-3.572,0.903-7.119,2.611-10.257
			l16.663-30.6C38.532,130.288,45.749,126,53.608,126h148.783c7.859,0,15.076,4.288,18.835,11.189l16.663,30.6
			c1.708,3.138,2.611,6.684,2.611,10.256v0.64c0,6.674-3.024,12.849-8.296,16.941C228.385,198.591,223.799,200.142,219.103,200.142z
			 M122.991,173.827c1.787,0,3.574,0.223,5.316,0.669l86.172,22.059c5.561,1.42,11.35,0.222,15.885-3.299
			c4.535-3.52,7.135-8.831,7.135-14.571v-0.64c0-3.072-0.777-6.122-2.246-8.82l-16.663-30.6c-3.232-5.938-9.44-9.625-16.2-9.625
			H53.608c-6.76,0-12.967,3.688-16.2,9.625l-16.663,30.6c-1.469,2.698-2.246,5.748-2.246,8.82c0,5.827,2.664,11.188,7.309,14.705
			c4.645,3.519,10.524,4.633,16.134,3.052l75.236-21.174C119.077,174.095,121.034,173.827,122.991,173.827z"/>
		<ellipse class="st4" cx="128" cy="157.072" rx="77" ry="70.5"/>
		<path class="st3" d="M128,229.072c-43.285,0-78.5-32.299-78.5-72c0-39.701,35.215-72,78.5-72s78.5,32.299,78.5,72
			C206.5,196.773,171.285,229.072,128,229.072z M128,88.072c-41.631,0-75.5,30.953-75.5,69c0,38.047,33.869,69,75.5,69
			s75.5-30.953,75.5-69C203.5,119.025,169.631,88.072,128,88.072z"/>
		<path class="st5" d="M51.147,26.292c0,0,3.408,12.659,13.222,13.246c0,0-13.1,4.525-13.321,14.202c0,0-2.578-13.572-12.925-14.059
			C38.122,39.682,50.173,37.856,51.147,26.292z"/>
		<path class="st3" d="M51.046,55.24c-0.713,0-1.336-0.506-1.472-1.218C49.55,53.898,47.08,41.605,38.052,41.18
			c-0.77-0.036-1.387-0.65-1.427-1.421c-0.039-0.77,0.511-1.444,1.273-1.561c0.442-0.068,10.894-1.816,11.754-12.032
			c0.061-0.726,0.634-1.301,1.359-1.367c0.722-0.069,1.393,0.399,1.583,1.102c0.032,0.116,3.259,11.626,11.864,12.142
			c0.714,0.043,1.297,0.584,1.396,1.292c0.098,0.708-0.319,1.388-0.994,1.622c-0.121,0.042-12.118,4.311-12.313,12.819
			c-0.018,0.767-0.61,1.396-1.375,1.46C51.13,55.238,51.088,55.24,51.046,55.24z M43.306,39.511c3.878,1.969,6.23,5.746,7.586,8.877
			c2.027-4.021,5.942-6.787,8.949-8.428c-4.134-1.842-6.783-5.651-8.334-8.723C49.714,35.598,46.236,38.105,43.306,39.511z"/>
		<path class="st5" d="M29.448,43.273c0,0,2.411,8.954,9.352,9.369c0,0-9.266,3.201-9.422,10.045c0,0-1.824-9.6-9.142-9.944
			C20.236,52.743,28.759,51.452,29.448,43.273z"/>
		<path class="st3" d="M29.376,64.188c-0.713,0-1.337-0.508-1.472-1.22c-0.016-0.082-1.704-8.442-7.739-8.727
			c-0.77-0.036-1.387-0.65-1.427-1.421c-0.04-0.77,0.511-1.444,1.273-1.561c0.296-0.047,7.364-1.242,7.942-8.113
			c0.061-0.726,0.635-1.303,1.36-1.368c0.732-0.064,1.392,0.399,1.582,1.102l0,0c0.021,0.079,2.227,7.92,7.994,8.266
			c0.714,0.043,1.299,0.584,1.396,1.293c0.098,0.709-0.32,1.389-0.996,1.622c-0.081,0.028-8.282,2.952-8.413,8.661
			c-0.017,0.768-0.611,1.397-1.376,1.461C29.459,64.186,29.418,64.188,29.376,64.188z M24.858,52.66
			c2.107,1.332,3.523,3.394,4.447,5.279c1.376-2.232,3.515-3.871,5.365-4.972c-2.287-1.27-3.884-3.351-4.941-5.225
			C28.555,50.03,26.714,51.619,24.858,52.66z"/>
		<path class="st5" d="M29.448,16.615c0,0,2.411,8.954,9.352,9.37c0,0-9.266,3.201-9.422,10.045c0,0-1.824-9.6-9.142-9.944
			C20.236,26.086,28.759,24.795,29.448,16.615z"/>
		<path class="st3" d="M29.376,37.53c-0.713,0-1.337-0.508-1.472-1.22c-0.016-0.082-1.704-8.442-7.739-8.727
			c-0.77-0.036-1.387-0.65-1.427-1.421c-0.04-0.769,0.511-1.444,1.273-1.561c0.296-0.047,7.364-1.242,7.942-8.113
			c0.061-0.726,0.635-1.303,1.36-1.368c0.732-0.073,1.392,0.399,1.582,1.102l0,0c0.021,0.079,2.227,7.92,7.994,8.266
			c0.714,0.043,1.299,0.584,1.396,1.293c0.098,0.709-0.32,1.389-0.996,1.622c-0.081,0.028-8.282,2.952-8.413,8.661
			c-0.017,0.768-0.611,1.397-1.376,1.461C29.459,37.528,29.418,37.53,29.376,37.53z M24.858,26.003
			c2.107,1.332,3.523,3.394,4.447,5.279c1.376-2.232,3.515-3.871,5.365-4.972c-2.287-1.269-3.884-3.351-4.941-5.225
			C28.555,23.373,26.714,24.962,24.858,26.003z"/>
		<path class="st5" d="M132.986,147.936l12.544-21.727c2.216-3.839-0.554-8.637-4.986-8.637h-25.088
			c-4.432,0-7.203,4.798-4.986,8.637l12.544,21.727C125.23,151.774,130.77,151.774,132.986,147.936z"/>
		<path class="st3" d="M128,152.314c-2.624,0-4.974-1.357-6.285-3.629l-12.544-21.727c-1.312-2.271-1.312-4.984,0-7.257
			c1.312-2.273,3.662-3.63,6.286-3.63h25.088c2.624,0,4.974,1.356,6.286,3.63c1.312,2.272,1.312,4.985-0.001,7.257l-12.544,21.727
			C132.974,150.958,130.623,152.314,128,152.314z M115.456,119.072c-1.539,0-2.918,0.796-3.688,2.129
			c-0.77,1.334-0.77,2.925,0,4.258l12.544,21.727c0.77,1.333,2.148,2.129,3.688,2.129c1.539,0,2.917-0.796,3.687-2.129l0,0
			l12.544-21.727c0.77-1.333,0.77-2.924,0-4.258c-0.77-1.333-2.148-2.129-3.688-2.129H115.456z"/>
		<polygon class="st29" points="190.725,239.385 221.845,239.385 221.845,219.591 42.733,219.591 42.733,239.385 177.942,239.385 		
			"/>
		<path class="st3" d="M221.846,240.885h-31.121c-0.829,0-1.5-0.672-1.5-1.5c0-0.828,0.671-1.5,1.5-1.5h29.621v-16.794H44.233
			v16.794h133.708c0.829,0,1.5,0.672,1.5,1.5c0,0.828-0.671,1.5-1.5,1.5H42.733c-0.829,0-1.5-0.672-1.5-1.5v-19.794
			c0-0.828,0.671-1.5,1.5-1.5h179.112c0.829,0,1.5,0.672,1.5,1.5v19.794C223.346,240.213,222.674,240.885,221.846,240.885z"/>
		<path class="st23" d="M221.845,239.385h7.835c5.147,0,9.32-4.173,9.32-9.32v-1.154c0-5.147-4.173-9.32-9.32-9.32h-7.835V239.385z"
			/>
		<path class="st3" d="M229.68,240.885h-7.835c-0.829,0-1.5-0.672-1.5-1.5v-19.794c0-0.828,0.671-1.5,1.5-1.5h7.835
			c5.966,0,10.82,4.854,10.82,10.82v1.153C240.5,236.031,235.646,240.885,229.68,240.885z M223.346,237.885h6.335
			c4.312,0,7.82-3.508,7.82-7.82v-1.153c0-4.312-3.508-7.82-7.82-7.82h-6.335V237.885z"/>
		<rect x="42.733" y="219.591" class="st23" width="89.113" height="19.793"/>
		<path class="st3" d="M131.847,240.885H42.733c-0.829,0-1.5-0.672-1.5-1.5v-19.794c0-0.828,0.671-1.5,1.5-1.5h89.113
			c0.829,0,1.5,0.672,1.5,1.5v19.794C133.347,240.213,132.675,240.885,131.847,240.885z M44.233,237.885h86.113v-16.794H44.233
			V237.885z"/>
		<polygon class="st30" points="42.733,239.385 42.733,219.591 17,229.651 		"/>
		<path class="st3" d="M42.733,240.885c-0.179,0-0.359-0.032-0.531-0.097l-25.733-9.733c-0.581-0.22-0.966-0.774-0.969-1.395
			c-0.003-0.621,0.376-1.18,0.954-1.406l25.733-10.061c0.462-0.178,0.982-0.12,1.392,0.158c0.41,0.28,0.654,0.743,0.654,1.239
			v19.794c0,0.493-0.242,0.954-0.648,1.234C43.332,240.795,43.034,240.885,42.733,240.885z M21.179,229.628l20.055,7.586v-15.426
			L21.179,229.628z"/>
		<path class="st5" d="M112.5,231.572L112.5,231.572c-3.417,0-6.188-2.77-6.188-6.187v-9.625c0-3.417,2.77-6.188,6.188-6.188l0,0
			c3.417,0,6.187,2.77,6.187,6.188v9.625C118.687,228.802,115.917,231.572,112.5,231.572z"/>
		<path class="st3" d="M112.5,233.072c-4.239,0-7.688-3.448-7.688-7.688v-9.625c0-4.239,3.449-7.688,7.688-7.688
			c4.239,0,7.687,3.448,7.687,7.688v9.625C120.187,229.624,116.739,233.072,112.5,233.072z M112.5,211.072
			c-2.585,0-4.688,2.103-4.688,4.688v9.625c0,2.585,2.103,4.688,4.688,4.688c2.584,0,4.687-2.103,4.687-4.688v-9.625
			C117.187,213.175,115.084,211.072,112.5,211.072z"/>
		<path class="st5" d="M143.5,231.572L143.5,231.572c-3.417,0-6.188-2.77-6.188-6.187v-9.625c0-3.417,2.77-6.188,6.188-6.188l0,0
			c3.417,0,6.187,2.77,6.187,6.188v9.625C149.687,228.802,146.917,231.572,143.5,231.572z"/>
		<path class="st3" d="M143.5,233.072c-4.239,0-7.688-3.448-7.688-7.688v-9.625c0-4.239,3.449-7.688,7.688-7.688
			c4.239,0,7.687,3.448,7.687,7.688v9.625C151.187,229.624,147.739,233.072,143.5,233.072z M143.5,211.072
			c-2.585,0-4.688,2.103-4.688,4.688v9.625c0,2.585,2.103,4.688,4.688,4.688c2.584,0,4.687-2.103,4.687-4.688v-9.625
			C148.187,213.175,146.084,211.072,143.5,211.072z"/>
		<path class="st28" d="M170.44,61.612v32.03c0,4.5-3.645,8.145-8.145,8.145H90.687c-4.5,0-8.145-3.645-8.145-8.145v-32.03
			l43.949,22.353L170.44,61.612z"/>
		<path class="st3" d="M162.295,103.287H90.687c-5.318,0-9.645-4.326-9.645-9.645v-32.03c0-0.521,0.271-1.006,0.716-1.278
			c0.445-0.273,0.999-0.297,1.464-0.059l43.268,22.008l43.269-22.008c0.465-0.238,1.02-0.215,1.464,0.059
			c0.445,0.272,0.716,0.757,0.716,1.278v32.03C171.94,98.961,167.614,103.287,162.295,103.287z M84.042,64.059v29.584
			c0,3.664,2.981,6.645,6.645,6.645h71.608c3.664,0,6.645-2.98,6.645-6.645V64.059l-41.769,21.244c-0.428,0.217-0.933,0.217-1.36,0
			L84.042,64.059z"/>
		<polygon class="st28" points="92.813,33.828 60.366,50.332 126.491,83.965 192.616,50.332 126.491,16.699 104.417,27.927 		"/>
		<path class="st3" d="M126.491,85.465c-0.233,0-0.466-0.055-0.68-0.163L59.686,51.669c-0.503-0.256-0.82-0.772-0.82-1.337
			c0-0.564,0.317-1.081,0.82-1.337l32.447-16.504c0.738-0.376,1.643-0.081,2.017,0.657c0.376,0.738,0.082,1.641-0.657,2.017
			L63.675,50.332l62.816,31.95l62.816-31.95l-62.816-31.95l-21.394,10.882c-0.737,0.378-1.641,0.082-2.017-0.657
			c-0.376-0.738-0.082-1.642,0.657-2.017l22.074-11.227c0.428-0.217,0.933-0.217,1.36,0l66.125,33.633
			c0.503,0.256,0.82,0.773,0.82,1.337c0,0.564-0.317,1.081-0.82,1.337l-66.125,33.633C126.957,85.41,126.725,85.465,126.491,85.465z
			"/>
		<circle class="st19" cx="100.5" cy="109.073" r="27.5"/>
		<path class="st3" d="M100.5,138.072c-15.991,0-29-13.01-29-29c0-15.99,13.009-29,29-29s29,13.01,29,29
			C129.5,125.062,116.491,138.072,100.5,138.072z M100.5,83.072c-14.336,0-26,11.663-26,26s11.664,26,26,26
			c14.336,0,26-11.663,26-26S114.836,83.072,100.5,83.072z"/>
		<circle class="st4" cx="100.5" cy="109.073" r="10.5"/>
		<path class="st3" d="M100.5,121.072c-6.617,0-12-5.383-12-12c0-6.617,5.383-12,12-12c6.617,0,12,5.383,12,12
			C112.5,115.689,107.117,121.072,100.5,121.072z M100.5,100.072c-4.962,0-9,4.037-9,9c0,4.963,4.038,9,9,9c4.962,0,9-4.037,9-9
			C109.5,104.109,105.462,100.072,100.5,100.072z"/>
		<circle class="st19" cx="155.5" cy="109.073" r="27.5"/>
		<path class="st3" d="M155.5,138.072c-15.991,0-29-13.01-29-29c0-15.99,13.009-29,29-29s29,13.01,29,29
			C184.5,125.062,171.491,138.072,155.5,138.072z M155.5,83.072c-14.336,0-26,11.663-26,26s11.664,26,26,26
			c14.336,0,26-11.663,26-26S169.836,83.072,155.5,83.072z"/>
		<circle class="st4" cx="155.5" cy="109.073" r="10.5"/>
		<path class="st3" d="M155.5,121.072c-6.617,0-12-5.383-12-12c0-6.617,5.383-12,12-12c6.617,0,12,5.383,12,12
			C167.5,115.689,162.117,121.072,155.5,121.072z M155.5,100.072c-4.962,0-9,4.037-9,9c0,4.963,4.038,9,9,9c4.962,0,9-4.037,9-9
			C164.5,104.109,160.462,100.072,155.5,100.072z"/>
		<path class="st5" d="M192.616,50.332v40.965c-1.693-2.177-3.984-3.516-6.516-3.516c-2.516,0-4.806,1.339-6.5,3.516V56.944
			L192.616,50.332z"/>
		<path class="st3" d="M192.617,92.797c-0.454,0-0.895-0.206-1.185-0.579c-1.473-1.894-3.367-2.936-5.331-2.936
			c-1.955,0-3.842,1.043-5.316,2.936c-0.394,0.507-1.065,0.705-1.67,0.498c-0.606-0.208-1.013-0.778-1.013-1.419V56.944
			c0-0.564,0.317-1.082,0.821-1.337l13.016-6.612c0.464-0.239,1.018-0.215,1.464,0.059c0.444,0.272,0.715,0.757,0.715,1.278v40.965
			c0,0.641-0.407,1.211-1.013,1.419C192.943,92.771,192.779,92.797,192.617,92.797z M186.101,86.281
			c1.776,0,3.486,0.541,5.016,1.562V52.776l-10.016,5.089v29.977C182.627,86.821,184.332,86.281,186.101,86.281z"/>
		<ellipse class="st5" cx="186.105" cy="100.798" rx="9.528" ry="13.014"/>
		<path class="st3" d="M186.105,115.312c-6.082,0-11.029-6.511-11.029-14.514c0-8.003,4.947-14.515,11.029-14.515
			c6.081,0,11.028,6.512,11.028,14.515C197.134,108.801,192.186,115.312,186.105,115.312z M186.105,89.283
			c-4.427,0-8.029,5.165-8.029,11.515c0,6.349,3.602,11.514,8.029,11.514c4.427,0,8.028-5.165,8.028-11.514
			C194.134,94.448,190.532,89.283,186.105,89.283z"/>
		<path class="st3" d="M128,206.5c-7.169,0-13-5.832-13-13c0-0.828,0.671-1.5,1.5-1.5c0.829,0,1.5,0.672,1.5,1.5
			c0,5.514,4.486,10,10,10c5.514,0,10-4.486,10-10c0-0.828,0.671-1.5,1.5-1.5c0.829,0,1.5,0.672,1.5,1.5
			C141,200.668,135.168,206.5,128,206.5z"/>
		<path class="st3" d="M91,168.5c-7.169,0-13-5.832-13-13c0-0.828,0.671-1.5,1.5-1.5c0.829,0,1.5,0.672,1.5,1.5
			c0,5.514,4.486,10,10,10c5.514,0,10-4.486,10-10c0-0.828,0.671-1.5,1.5-1.5c0.829,0,1.5,0.672,1.5,1.5
			C104,162.668,98.168,168.5,91,168.5z"/>
		<path class="st3" d="M128,168.5c-7.169,0-13-5.832-13-13c0-0.828,0.671-1.5,1.5-1.5c0.829,0,1.5,0.672,1.5,1.5
			c0,5.514,4.486,10,10,10c5.514,0,10-4.486,10-10c0-0.828,0.671-1.5,1.5-1.5c0.829,0,1.5,0.672,1.5,1.5
			C141,162.668,135.168,168.5,128,168.5z"/>
		<path class="st3" d="M165,168.5c-7.169,0-13-5.832-13-13c0-0.828,0.671-1.5,1.5-1.5c0.829,0,1.5,0.672,1.5,1.5
			c0,5.514,4.486,10,10,10c5.514,0,10-4.486,10-10c0-0.828,0.671-1.5,1.5-1.5c0.829,0,1.5,0.672,1.5,1.5
			C178,162.668,172.168,168.5,165,168.5z"/>
		<path class="st3" d="M109.5,188.5c-7.169,0-13-5.832-13-13c0-0.828,0.671-1.5,1.5-1.5c0.829,0,1.5,0.672,1.5,1.5
			c0,5.514,4.486,10,10,10c5.514,0,10-4.486,10-10c0-0.828,0.671-1.5,1.5-1.5c0.829,0,1.5,0.672,1.5,1.5
			C122.5,182.668,116.668,188.5,109.5,188.5z"/>
		<path class="st3" d="M146.5,188.5c-7.169,0-13-5.832-13-13c0-0.828,0.671-1.5,1.5-1.5c0.829,0,1.5,0.672,1.5,1.5
			c0,5.514,4.486,10,10,10c5.514,0,10-4.486,10-10c0-0.828,0.671-1.5,1.5-1.5c0.829,0,1.5,0.672,1.5,1.5
			C159.5,182.668,153.668,188.5,146.5,188.5z"/>
		<path class="st6" d="M187.87,115.11c-0.57,0.12-1.16,0.2-1.76,0.2c-0.77,0-1.51-0.1-2.23-0.29c-0.75,3.59-2.17,6.93-4.11,9.9
			c5.57,9.6,8.73,20.54,8.73,32.15c0,25.33-15,47.5-37.31,59.5v2.68h9.54c25.29-11.17,42.77-34.84,42.77-62.18
			C203.5,141.29,197.66,126.74,187.87,115.11z"/>
		<path class="st18" d="M168.94,64.06v19.33c-4.02-2.12-8.59-3.32-13.44-3.32c-0.52,0-1.05,0.01-1.56,0.05v-8.43L168.94,64.06z"/>
	</g>
</g>
</svg>
